<?xml version="1.0" encoding="utf-8"?>
<!-- Generator: Adobe Illustrator 24.0.0, SVG Export Plug-In . SVG Version: 6.00 Build 0)  -->
<svg version="1.1" xmlns="http://www.w3.org/2000/svg" xmlns:xlink="http://www.w3.org/1999/xlink" x="0px" y="0px"
	 viewBox="0 0 1920 3041" style="enable-background:new 0 0 1920 3041;" xml:space="preserve">
<style type="text/css">
	.st0{fill:none;}
	.st1{fill:none;stroke:#FFCE06;stroke-width:8;stroke-miterlimit:10;}
	.st2{fill:none;stroke:#29ABE2;stroke-width:8;stroke-miterlimit:10;}
	.st3{fill:none;stroke:#39B54A;stroke-width:8;stroke-miterlimit:10;}
</style>
<g id="Layer_2">
	<g>
		<rect x="0.5" y="8" class="st0" width="1920" height="3038"/>
	</g>
</g>
<g id="Layer_1">
	<path class="st1" d="M477.5,1039v-91.19c0-7.32,5.99-13.26,13.39-13.26l349.2,0.43c14.03,0.01,25.41-11.36,30.41-25.39V857"/>
	<path class="st2" d="M1105.98,858.04v21.77c0,7.32,5.94,13.26,13.26,13.26h305.13c7.32,0,13.26,5.94,13.26,13.26v5.13v1362.01
		c0,8.58-6.95,15.53-15.53,15.53H855.74c-8.97,0-16.24,7.27-16.24,16.24V2362"/>
	<path class="st3" d="M985.73,858v354.29c0,7.32-5.99,13.26-13.39,13.26l-480.61-1c-7.39,0-13.39,5.94-13.39,13.26V1293"/>
</g>
</svg>
