<?xml version="1.0" encoding="utf-8"?>
<!-- Generator: Adobe Illustrator 24.0.0, SVG Export Plug-In . SVG Version: 6.00 Build 0)  -->
<svg version="1.1" id="Layer_1" xmlns="http://www.w3.org/2000/svg" xmlns:xlink="http://www.w3.org/1999/xlink" x="0px" y="0px"
	 viewBox="0 0 877 525" style="enable-background:new 0 0 877 525;" xml:space="preserve">
<style type="text/css">
	.st0{fill:#9B735A;}
	.st1{fill:#F1F4FB;}
	.st2{fill:#E4EAF8;}
	.st3{fill:#FFF082;}
	.st4{fill:#FFFFFF;}
	.st5{fill:#FFDC64;}
</style>
<path class="st0" d="M513.27,104.81H313.6c-10.34,0-18.72,8.38-18.72,18.72V385.6c0,10.34,8.38,18.72,18.72,18.72h199.67
	c10.34,0,18.72-8.38,18.72-18.72V123.53C531.99,113.19,523.61,104.81,513.27,104.81z"/>
<rect x="319.84" y="129.77" class="st1" width="187.19" height="249.59"/>
<path class="st2" d="M507.03,373.12V300.5c-35.76,8.46-62.4,40.51-62.4,78.86h56.16C504.24,379.36,507.03,376.56,507.03,373.12z"/>
<path class="st3" d="M450.88,92.33h-15.94c-4.32-7.43-12.28-12.48-21.5-12.48s-17.17,5.05-21.5,12.48H376
	c-6.89,0-12.48,5.59-12.48,12.48v24.96h99.84v-24.96C463.35,97.92,457.77,92.33,450.88,92.33z"/>
<circle class="st4" cx="525.75" cy="379.36" r="62.4"/>
<g>
	<circle class="st5" cx="369.76" cy="192.17" r="12.48"/>
	<circle class="st5" cx="369.76" cy="316.96" r="12.48"/>
	<circle class="st5" cx="369.76" cy="254.56" r="12.48"/>
</g>
<path class="st2" d="M536.23,403.55c-17.4-3.24-31.45-17.29-34.68-34.7c-1.08-5.81-0.98-11.44,0.08-16.73
	c0.78-3.9-3.78-6.57-6.61-3.78c-9.37,9.26-14.57,22.73-12.51,37.35c2.66,18.87,18.02,34.23,36.89,36.89
	c14.63,2.06,28.09-3.14,37.35-12.51c2.79-2.83,0.12-7.39-3.77-6.61C547.69,404.54,542.05,404.63,536.23,403.55z"/>
<path d="M438.4,398.47H313.6c-7.1,0-12.87-5.77-12.87-12.87V123.53c0-7.1,5.77-12.87,12.87-12.87h44.07v19.11
	c0,3.23,2.62,5.85,5.85,5.85h99.84c3.23,0,5.85-2.62,5.85-5.85v-19.11h44.07c7.1,0,12.87,5.77,12.87,12.87V292
	c0,3.23,2.62,5.85,5.85,5.85c3.23,0,5.85-2.62,5.85-5.85V123.53c0-13.55-11.02-24.57-24.57-24.57h-45.03
	c-2.45-7.25-9.31-12.48-17.37-12.48h-12.8C432.29,78.71,423.14,74,413.44,74s-18.85,4.71-24.63,12.48H376
	c-8.06,0-14.92,5.23-17.37,12.48H313.6c-13.55,0-24.57,11.02-24.57,24.57V385.6c0,13.55,11.02,24.57,24.57,24.57h124.8
	c3.23,0,5.85-2.62,5.85-5.85C444.25,401.09,441.63,398.47,438.4,398.47z M376,98.18h15.94c2.08,0,4.01-1.11,5.06-2.91
	c3.49-5.99,9.63-9.57,16.44-9.57s12.95,3.58,16.44,9.57c1.05,1.8,2.97,2.91,5.06,2.91h15.94c3.65,0,6.62,2.96,6.63,6.61
	c0,0.01,0,0.01,0,0.02c0,0.02,0,0.03,0,0.05v19.06h-88.14v-19.09c0-0.01,0-0.01,0-0.02c0,0,0-0.01,0-0.01
	C369.38,101.15,372.35,98.18,376,98.18z"/>
<path d="M338.56,135.62c3.23,0,5.85-2.62,5.85-5.85s-2.62-5.85-5.85-5.85h-18.72c-3.23,0-5.85,2.62-5.85,5.85v249.59
	c0,3.23,2.62,5.85,5.85,5.85h118.55c3.23,0,5.85-2.62,5.85-5.85c0-3.23-2.62-5.85-5.85-5.85h-112.7V135.62H338.56z"/>
<path d="M507.03,297.85c3.23,0,5.85-2.62,5.85-5.85V129.77c0-3.23-2.62-5.85-5.85-5.85h-18.72c-3.23,0-5.85,2.62-5.85,5.85
	s2.62,5.85,5.85,5.85h12.87V292C501.18,295.23,503.8,297.85,507.03,297.85z"/>
<path d="M469.59,198.8h-62.4c-3.23,0-5.85,2.62-5.85,5.85c0,3.23,2.62,5.85,5.85,5.85h62.4c3.23,0,5.85-2.62,5.85-5.85
	C475.44,201.41,472.83,198.8,469.59,198.8z"/>
<path d="M407.2,185.54h43.68c3.23,0,5.85-2.62,5.85-5.85c0-3.23-2.62-5.85-5.85-5.85H407.2c-3.23,0-5.85,2.62-5.85,5.85
	C401.35,182.92,403.97,185.54,407.2,185.54z"/>
<path d="M531.6,376.94v-39.18c0-3.23-2.62-5.85-5.85-5.85c-3.23,0-5.85,2.62-5.85,5.85v41.6c0,1.55,0.62,3.04,1.71,4.14l26,26
	c1.14,1.14,2.64,1.71,4.14,1.71c1.5,0,2.99-0.57,4.14-1.71c2.28-2.28,2.28-5.99,0-8.27L531.6,376.94z"/>
<path d="M525.75,311.11c-37.63,0-68.25,30.62-68.25,68.25s30.62,68.25,68.25,68.25S594,416.99,594,379.36
	S563.38,311.11,525.75,311.11z M525.75,435.91c-31.18,0-56.55-25.37-56.55-56.55s25.37-56.55,56.55-56.55s56.55,25.37,56.55,56.55
	S556.93,435.91,525.75,435.91z"/>
<path d="M383.5,193.34c-2.8-1.62-6.37-0.66-7.99,2.13c-1.19,2.05-3.39,3.32-5.75,3.32c-3.66,0-6.63-2.97-6.63-6.63
	s2.97-6.63,6.63-6.63c3.23,0,5.85-2.62,5.85-5.85c0-3.23-2.62-5.85-5.85-5.85c-10.11,0-18.33,8.22-18.33,18.33
	c0,10.11,8.22,18.33,18.33,18.33c6.52,0,12.6-3.51,15.87-9.16C387.25,198.54,386.29,194.96,383.5,193.34z"/>
<path d="M407.2,272.89h62.4c3.23,0,5.85-2.62,5.85-5.85c0-3.23-2.62-5.85-5.85-5.85h-62.4c-3.23,0-5.85,2.62-5.85,5.85
	S403.97,272.89,407.2,272.89z"/>
<path d="M407.2,247.93h43.68c3.23,0,5.85-2.62,5.85-5.85c0-3.23-2.62-5.85-5.85-5.85H407.2c-3.23,0-5.85,2.62-5.85,5.85
	C401.35,245.31,403.97,247.93,407.2,247.93z"/>
<path d="M369.76,247.93c3.23,0,5.85-2.62,5.85-5.85c0-3.23-2.62-5.85-5.85-5.85c-10.11,0-18.33,8.22-18.33,18.33
	s8.22,18.33,18.33,18.33c6.52,0,12.6-3.51,15.87-9.16c1.62-2.8,0.66-6.37-2.13-7.99c-2.8-1.62-6.37-0.66-7.99,2.13
	c-1.19,2.05-3.39,3.32-5.75,3.32c-3.66,0-6.63-2.97-6.63-6.63C363.13,250.91,366.1,247.93,369.76,247.93z"/>
<path d="M450.88,323.59H407.2c-3.23,0-5.85,2.62-5.85,5.85c0,3.23,2.62,5.85,5.85,5.85h43.68c3.23,0,5.85-2.62,5.85-5.85
	C456.72,326.21,454.11,323.59,450.88,323.59z"/>
<path d="M450.88,298.63H407.2c-3.23,0-5.85,2.62-5.85,5.85c0,3.23,2.62,5.85,5.85,5.85h43.68c3.23,0,5.85-2.62,5.85-5.85
	C456.72,301.25,454.11,298.63,450.88,298.63z"/>
<path d="M369.76,335.29c6.52,0,12.6-3.51,15.87-9.16c1.62-2.8,0.66-6.37-2.13-7.99c-2.8-1.62-6.37-0.66-7.99,2.13
	c-1.19,2.05-3.39,3.32-5.75,3.32c-3.66,0-6.63-2.97-6.63-6.63s2.97-6.63,6.63-6.63c3.23,0,5.85-2.62,5.85-5.85
	c0-3.23-2.62-5.85-5.85-5.85c-10.11,0-18.33,8.22-18.33,18.33C351.43,327.07,359.65,335.29,369.76,335.29z"/>
<path d="M413.5,110.66c3.23,0,5.85-2.62,5.85-5.85c0-3.23-2.62-5.85-5.85-5.85h-0.06c-3.23,0-5.82,2.62-5.82,5.85
	C407.62,108.04,410.27,110.66,413.5,110.66z"/>
</svg>
