<?xml version="1.0" encoding="utf-8"?>
<!-- Generator: Adobe Illustrator 24.0.0, SVG Export Plug-In . SVG Version: 6.00 Build 0)  -->
<svg version="1.1" id="Layer_1" xmlns="http://www.w3.org/2000/svg" xmlns:xlink="http://www.w3.org/1999/xlink" x="0px" y="0px"
	 viewBox="0 0 363 525" style="enable-background:new 0 0 363 525;" xml:space="preserve">
<style type="text/css">
	.st0{fill:#9B735A;}
	.st1{fill:#F1F4FB;}
	.st2{fill:#E4EAF8;}
	.st3{fill:#FFF082;}
	.st4{fill:#FFFFFF;}
	.st5{fill:#FFDC64;}
</style>
<path class="st0" d="M258.27,109.81H58.6c-10.34,0-18.72,8.38-18.72,18.72V390.6c0,10.34,8.38,18.72,18.72,18.72h199.67
	c10.34,0,18.72-8.38,18.72-18.72V128.53C276.99,118.19,268.61,109.81,258.27,109.81z"/>
<rect x="64.84" y="134.77" class="st1" width="187.19" height="249.59"/>
<path class="st2" d="M252.03,378.12V305.5c-35.76,8.46-62.4,40.51-62.4,78.86h56.16C249.24,384.36,252.03,381.56,252.03,378.12z"/>
<path class="st3" d="M195.88,97.33h-15.94c-4.32-7.43-12.28-12.48-21.5-12.48s-17.17,5.05-21.5,12.48H121
	c-6.89,0-12.48,5.59-12.48,12.48v24.96h99.84v-24.96C208.35,102.92,202.77,97.33,195.88,97.33z"/>
<circle class="st4" cx="270.75" cy="384.36" r="62.4"/>
<g>
	<circle class="st5" cx="114.76" cy="197.17" r="12.48"/>
	<circle class="st5" cx="114.76" cy="321.96" r="12.48"/>
	<circle class="st5" cx="114.76" cy="259.56" r="12.48"/>
</g>
<path class="st2" d="M281.23,408.55c-17.4-3.24-31.45-17.29-34.68-34.7c-1.08-5.81-0.98-11.44,0.08-16.73
	c0.78-3.9-3.78-6.57-6.61-3.78c-9.37,9.26-14.57,22.73-12.51,37.35c2.66,18.87,18.02,34.23,36.89,36.89
	c14.63,2.06,28.09-3.14,37.35-12.51c2.79-2.83,0.12-7.39-3.77-6.61C292.69,409.54,287.05,409.63,281.23,408.55z"/>
<path d="M183.4,403.47H58.6c-7.1,0-12.87-5.77-12.87-12.87V128.53c0-7.1,5.77-12.87,12.87-12.87h44.07v19.11
	c0,3.23,2.62,5.85,5.85,5.85h99.84c3.23,0,5.85-2.62,5.85-5.85v-19.11h44.07c7.1,0,12.87,5.77,12.87,12.87V297
	c0,3.23,2.62,5.85,5.85,5.85c3.23,0,5.85-2.62,5.85-5.85V128.53c0-13.55-11.02-24.57-24.57-24.57h-45.03
	c-2.45-7.25-9.31-12.48-17.37-12.48h-12.8C177.29,83.71,168.14,79,158.44,79c-9.7,0-18.85,4.71-24.63,12.48H121
	c-8.06,0-14.92,5.23-17.37,12.48H58.6c-13.55,0-24.57,11.02-24.57,24.57V390.6c0,13.55,11.02,24.57,24.57,24.57h124.8
	c3.23,0,5.85-2.62,5.85-5.85C189.25,406.09,186.63,403.47,183.4,403.47z M121,103.18h15.94c2.08,0,4.01-1.11,5.06-2.91
	c3.49-5.99,9.63-9.57,16.44-9.57s12.95,3.58,16.44,9.57c1.05,1.8,2.97,2.91,5.06,2.91h15.94c3.65,0,6.62,2.96,6.63,6.61
	c0,0.01,0,0.01,0,0.02c0,0.02,0,0.03,0,0.05v19.06h-88.14v-19.09c0-0.01,0-0.01,0-0.02c0,0,0-0.01,0-0.01
	C114.38,106.15,117.35,103.18,121,103.18z"/>
<path d="M83.56,140.62c3.23,0,5.85-2.62,5.85-5.85s-2.62-5.85-5.85-5.85H64.84c-3.23,0-5.85,2.62-5.85,5.85v249.59
	c0,3.23,2.62,5.85,5.85,5.85h118.55c3.23,0,5.85-2.62,5.85-5.85c0-3.23-2.62-5.85-5.85-5.85H70.69V140.62H83.56z"/>
<path d="M252.03,302.85c3.23,0,5.85-2.62,5.85-5.85V134.77c0-3.23-2.62-5.85-5.85-5.85h-18.72c-3.23,0-5.85,2.62-5.85,5.85
	s2.62,5.85,5.85,5.85h12.87V297C246.18,300.23,248.8,302.85,252.03,302.85z"/>
<path d="M214.59,203.8h-62.4c-3.23,0-5.85,2.62-5.85,5.85c0,3.23,2.62,5.85,5.85,5.85h62.4c3.23,0,5.85-2.62,5.85-5.85
	C220.44,206.41,217.83,203.8,214.59,203.8z"/>
<path d="M152.2,190.54h43.68c3.23,0,5.85-2.62,5.85-5.85c0-3.23-2.62-5.85-5.85-5.85H152.2c-3.23,0-5.85,2.62-5.85,5.85
	C146.35,187.92,148.97,190.54,152.2,190.54z"/>
<path d="M276.6,381.94v-39.18c0-3.23-2.62-5.85-5.85-5.85c-3.23,0-5.85,2.62-5.85,5.85v41.6c0,1.55,0.62,3.04,1.71,4.14l26,26
	c1.14,1.14,2.64,1.71,4.14,1.71s2.99-0.57,4.14-1.71c2.28-2.28,2.28-5.99,0-8.27L276.6,381.94z"/>
<path d="M270.75,316.11c-37.63,0-68.25,30.62-68.25,68.25s30.62,68.25,68.25,68.25S339,421.99,339,384.36
	S308.38,316.11,270.75,316.11z M270.75,440.91c-31.18,0-56.55-25.37-56.55-56.55s25.37-56.55,56.55-56.55s56.55,25.37,56.55,56.55
	S301.93,440.91,270.75,440.91z"/>
<path d="M128.5,198.34c-2.8-1.62-6.37-0.66-7.99,2.13c-1.19,2.05-3.39,3.32-5.75,3.32c-3.66,0-6.63-2.97-6.63-6.63
	s2.97-6.63,6.63-6.63c3.23,0,5.85-2.62,5.85-5.85c0-3.23-2.62-5.85-5.85-5.85c-10.11,0-18.33,8.22-18.33,18.33
	c0,10.11,8.22,18.33,18.33,18.33c6.52,0,12.6-3.51,15.87-9.16C132.25,203.54,131.29,199.96,128.5,198.34z"/>
<path d="M152.2,277.89h62.4c3.23,0,5.85-2.62,5.85-5.85c0-3.23-2.62-5.85-5.85-5.85h-62.4c-3.23,0-5.85,2.62-5.85,5.85
	S148.97,277.89,152.2,277.89z"/>
<path d="M152.2,252.93h43.68c3.23,0,5.85-2.62,5.85-5.85c0-3.23-2.62-5.85-5.85-5.85H152.2c-3.23,0-5.85,2.62-5.85,5.85
	C146.35,250.31,148.97,252.93,152.2,252.93z"/>
<path d="M114.76,252.93c3.23,0,5.85-2.62,5.85-5.85c0-3.23-2.62-5.85-5.85-5.85c-10.11,0-18.33,8.22-18.33,18.33
	c0,10.11,8.22,18.33,18.33,18.33c6.52,0,12.6-3.51,15.87-9.16c1.62-2.8,0.66-6.37-2.13-7.99c-2.8-1.62-6.37-0.66-7.99,2.13
	c-1.19,2.05-3.39,3.32-5.75,3.32c-3.66,0-6.63-2.97-6.63-6.63C108.13,255.91,111.1,252.93,114.76,252.93z"/>
<path d="M195.88,328.59H152.2c-3.23,0-5.85,2.62-5.85,5.85c0,3.23,2.62,5.85,5.85,5.85h43.68c3.23,0,5.85-2.62,5.85-5.85
	C201.72,331.21,199.11,328.59,195.88,328.59z"/>
<path d="M195.88,303.63H152.2c-3.23,0-5.85,2.62-5.85,5.85c0,3.23,2.62,5.85,5.85,5.85h43.68c3.23,0,5.85-2.62,5.85-5.85
	C201.72,306.25,199.11,303.63,195.88,303.63z"/>
<path d="M114.76,340.29c6.52,0,12.6-3.51,15.87-9.16c1.62-2.8,0.66-6.37-2.13-7.99c-2.8-1.62-6.37-0.66-7.99,2.13
	c-1.19,2.05-3.39,3.32-5.75,3.32c-3.66,0-6.63-2.97-6.63-6.63s2.97-6.63,6.63-6.63c3.23,0,5.85-2.62,5.85-5.85
	c0-3.23-2.62-5.85-5.85-5.85c-10.11,0-18.33,8.22-18.33,18.33C96.43,332.07,104.65,340.29,114.76,340.29z"/>
<path d="M158.5,115.66c3.23,0,5.85-2.62,5.85-5.85c0-3.23-2.62-5.85-5.85-5.85h-0.06c-3.23,0-5.82,2.62-5.82,5.85
	C152.62,113.04,155.27,115.66,158.5,115.66z"/>
</svg>
